<svg xmlns="http://www.w3.org/2000/svg" viewBox="0 0 32 32">
  <defs>
   <linearGradient id="M45Lin" x1="-25%" y1="50%" x2="50%" y2="125%">
     <stop offset="0%"   stop-color="#8b1eff"/>
     <stop offset="50%"  stop-color="#ff8f1f"/>
     <stop offset="100%" stop-color="#44ffbe"/>
   </linearGradient>
 </defs>>
  <path fill="#8b1eff" d="M14.2 6.2v19.6c0 .2-.1.5-.3.6-.2.2-.4.3-.6.3H6.2c-.2 0-.5-.1-.6-.3-.2-.2-.3-.4-.3-.6V6.2c0-.2.1-.5.3-.6.2-.2.4-.3.6-.3h7.1c.2 0 .5.1.6.3.2.1.3.3.3.6zm12.5 0v19.6c0 .2-.1.5-.3.6-.2.2-.4.3-.6.3h-7.1c-.2 0-.5-.1-.6-.3-.2-.2-.3-.4-.3-.6V6.2c0-.2.1-.5.3-.6.2-.2.4-.3.6-.3h7.1c.2 0 .5.1.6.3.2.1.3.3.3.6z"/>
</svg>
